<svg xmlns="http://www.w3.org/2000/svg" width="47" height="47" viewBox="0 0 47 47"><path d="M23.5 47C10.54 47 0 36.46 0 23.5S10.54 0 23.5 0 47 10.54 47 23.5 36.46 47 23.5 47zm0-46C11.09 1 1 11.09 1 23.5S11.09 46 23.5 46 46 35.91 46 23.5 35.91 1 23.5 1zm3.63 19.75c.56.39 1.42.75 2.58 1.07.9.26 1.69.54 2.35.86.66.31 1.21.66 1.65 1.06.43.39.76.84.97 1.33.22.5.32 1.06.32 1.68 0 .65-.13 1.24-.4 1.76-.27.53-.65.97-1.15 1.34-.49.36-1.1.65-1.8.84-.71.2-1.49.29-2.36.29-.77 0-1.53-.1-2.28-.3-.75-.2-1.43-.51-2.02-.92-.6-.41-1.08-.92-1.44-1.53-.37-.61-.55-1.33-.55-2.16h2.79c0 .49.09.91.27 1.27.18.35.43.64.74.86.31.23.68.39 1.11.49.43.11.89.16 1.38.16.97 0 1.7-.19 2.19-.57.49-.38.73-.89.73-1.51 0-.32-.05-.6-.14-.84-.1-.25-.27-.47-.53-.68-.25-.21-.6-.4-1.04-.59-.45-.19-1.02-.39-1.72-.6-.76-.22-1.47-.47-2.12-.75-.64-.29-1.2-.62-1.67-1-.46-.37-.83-.81-1.09-1.3-.27-.49-.4-1.05-.4-1.69 0-.62.14-1.2.41-1.73.28-.52.67-.98 1.17-1.36.5-.39 1.09-.69 1.79-.9.7-.22 1.47-.32 2.32-.32.9 0 1.72.12 2.44.38.72.25 1.33.59 1.82 1.03.5.43.88.94 1.14 1.51.27.57.4 1.18.4 1.83h-2.78c0-.38-.06-.72-.18-1.04-.12-.32-.31-.59-.56-.82-.25-.23-.56-.41-.95-.54-.38-.13-.83-.19-1.35-.19-.49 0-.92.05-1.28.16-.36.1-.66.25-.9.44-.24.2-.42.42-.53.69-.11.26-.17.55-.17.85 0 .58.28 1.06.84 1.44zm-8.54 8.95c-.44.41-.97.74-1.58.95-.61.22-1.28.33-2 .33-.73 0-1.4-.09-2.01-.28-.61-.18-1.14-.47-1.58-.86-.45-.39-.79-.88-1.04-1.48-.25-.59-.37-1.28-.37-2.08h2.65c0 .45.05.84.17 1.16.12.32.28.58.48.78.21.2.46.34.74.44.29.09.61.14.96.14.34 0 .66-.06.95-.18.28-.12.53-.3.74-.53.21-.23.37-.51.48-.85.12-.34.18-.73.18-1.18V15H20v11.06c0 .78-.12 1.48-.37 2.09-.25.61-.59 1.13-1.04 1.55z" fill="#9D9D9D"/></svg>