<svg xmlns="http://www.w3.org/2000/svg" xmlns:xlink="http://www.w3.org/1999/xlink" width="23" height="26" viewBox="0 0 23 26"><clipPath id="b"><path d="M22.79 14.84c0 6.08-4.92 11-10.99 11-6.08 0-11-4.92-11-11 0-4.21 2.37-7.86 5.85-9.71l3.72-3.71c.78-.78 2.04-.78 2.82 0l3.69 3.68c3.51 1.84 5.91 5.51 5.91 9.74z"/></clipPath><defs><symbol id="a"><path d="M22.79 14.84c0 6.08-4.92 11-10.99 11-6.08 0-11-4.92-11-11 0-4.21 2.37-7.86 5.85-9.71l3.72-3.71c.78-.78 2.04-.78 2.82 0l3.69 3.68c3.51 1.84 5.91 5.51 5.91 9.74z"/></symbol></defs><use xlink:href="#a" width="23" height="26" fill="#FFF"/><use xlink:href="#a" width="23" height="26" fill="none" stroke="#AFAFAF" stroke-width="2" clip-path="url(#b)"/></svg>